PathFileType	4	(X/Y/Z)	C:/Users/beibeiliu/ov580/test_trc/User3\sequence.48_training_dense_left.trc
DataRate	CameraRate	NumFrames	NumMarkers	Units	OrigDataRate	OrigDataStartFrame	OrigNumFrames
120	120	8	19	mm	120	108	188
Frame#	Time	ThumbCMC			ThumbMCP			ThumbIP			ThumbTip			IndexMCP			IndexPIP			IndexTip			MiddleMCP			MiddlePIP			MiddleTip			RingMCP			RingPIP			RingTip			PinkyMCP			PinkyPIP			PinkyTip			BackHand1			BackHand2			BackHand3	
		X0	Y0	Z0	X1	Y1	Z1	X2	Y2	Z2	X3	Y3	Z3	X4	Y4	Z4	X5	Y5	Z5	X6	Y6	Z6	X7	Y7	Z7	X8	Y8	Z8	X9	Y9	Z9	X10	Y10	Z10	X11	Y11	Z11	X12	Y12	Z12	X13	Y13	Z13	X14	Y14	Z14	X15	Y15	Z15	X16	Y16	Z16	X17	Y17	Z17	X18	Y18	Z18	
107	0.891667	-86.7544	6.94745	72.1371	-70.2853	10.622	38.8796	-60.2937	12.2727	14.5979	-56.716	9.34416	-11.9471	-125.643	41.7804	15.7548	-114.291	43.4659	-15.9946	-90.0876	20.9365	-18.6967	-154.079	28.1375	14.6332	-149.618	36.2938	-16.521	-122.014	17.5796	-28.5363	-158.028	5.51055	19.4718	-163.781	12.1073	-9.14869	-134.423	5.60351	-27.1992	-155.283	-18.7767	25.0596	-160.711	-10.6619	0.560635	-138.516	-13.3291	-19.8677	-147.625	-15.2568	58.1964	-140.155	-25.5884	87.2098	-127.84	10.9525	77.4	
108	0.9	-69.5856	2.86217	74.1907	-57.4961	6.20952	43.6893	-43.7603	12.4159	18.766	-39.4644	12.4385	-3.53275	-99.1956	46.3292	16.6701	-90.3964	40.2125	-14.9267	-73.0854	10.0331	-17.9011	-129.141	48.4041	21.8557	-128.281	53.9844	-11.6928	-110.423	30.6746	-33.9118	-145.88	30.0171	29.0449	-153.676	40.8948	5.39799	-140.567	32.9114	-25.1364	-151.455	2.72356	36.1045	-163.262	15.5172	13.7561	-156.238	16.9172	-10.3637	-134.074	4.92121	67.1954	-130.131	-8.14855	92.9534	-105.825	16.4948	79.838	
109	0.908333	-60.2372	-2.83258	69.7052	-42.155	1.1601	44.9581	-34.6291	5.91705	18.8679	-28.2386	10.5559	-5.03001	-85.8323	37.3224	8.3132	-81.3784	30.0313	-18.7166	-76.3873	2.65086	-31.8945	-111.298	45.6287	19.6122	-113.964	55.5386	-14.4506	-113.973	39.1971	-43.5438	-130.848	37.0587	29.7829	-139.673	50.9327	4.43715	-143.736	49.1162	-22.0512	-146.219	15.624	41.6765	-154.808	30.709	22.1319	-162.856	30.7747	-3.70453	-121.893	11.1553	72.1495	-116.863	0.456617	98.4814	-87.7303	16.8426	81.494	
110	0.916667	-52.0054	-10.2628	69.2766	-36.4733	-3.97021	39.8048	-29.9914	0.209162	14.1276	-26.5158	3.05515	-7.4673	-80.3593	27.2394	1.81162	-83.4442	19.2021	-27.9406	-83.178	2.0163	-47.0022	-105.592	38.7182	7.70862	-112.641	43.3839	-21.9281	-116.55	32.3075	-56.9389	-124.495	32.8747	23.4172	-135.837	42.4234	-0.596074	-145.362	36.5156	-29.3947	-140.18	15.9187	39.5289	-153.868	25.6413	19.7191	-159.925	18.2791	-4.86652	-114.841	13.3493	70.144	-109.065	3.49758	97.1724	-77.6229	14.8278	74.9218	
111	0.925	-51.3691	-11.9233	65.9807	-37.6584	-13.6571	42.1706	-28.3645	-11.5044	14.0296	-21.3698	-12.7993	-7.65964	-78.6056	22.6851	-0.971924	-81.6818	21.0743	-28.2085	-85.9539	7.25122	-54.6875	-103.424	34.6004	4.32414	-113.489	34.7269	-23.9159	-121.212	12.6544	-54.6438	-127.643	24.4894	17.3077	-140.16	24.261	-8.89328	-144.288	1.59971	-30.5895	-143.47	9.28133	37.831	-158.37	8.40689	13.2569	-155.518	-18.1611	-7.55868	-110.606	16.8626	63.1542	-103.075	7.14778	94.2166	-77.6705	12.5454	72.2806	
112	0.933333	-48.1746	-10.0716	69.0207	-36.224	-12.8692	40.8961	-28.2306	-14.0054	14.8545	-20.351	-17.5676	-7.8432	-77.0686	24.9522	1.8867	-77.8417	24.1869	-29.9402	-84.5995	9.9851	-55.7559	-108.041	28.4147	5.48709	-110.805	21.3122	-27.2511	-114.028	-14.9055	-39.1539	-126.797	16.444	10.7718	-134.971	0.997983	-12.1655	-127.3	-30.6398	-13.8809	-143.059	4.02112	27.0932	-147.112	-9.8931	8.17202	-131.098	-38.0052	8.30109	-111.505	17.8143	67.423	-103.662	11.2349	92.713	-76.5827	17.6069	70.6472	
113	0.941667	-48.2364	-7.46222	66.2311	-36.8183	-12.0478	43.8618	-25.9487	-14.1748	15.1886	-20.0199	-17.0476	-8.16101	-78.1192	26.7974	3.45413	-81.9873	24.3454	-30.8934	-85.1361	1.12025	-50.6786	-108.076	19.2786	-3.91148	-106.108	-1.13244	-26.246	-102.097	-39.6471	-6.35987	-122.252	6.25161	5.95537	-122.6	-19.0135	-7.22235	-109.508	-45.2728	14.151	-138.536	-2.82492	24.8762	-134.37	-28.728	10.2011	-114.416	-44.1654	29.2093	-109.049	21.3373	62.1856	-107.654	12.3951	94.3451	-75.315	17.6035	72.596	
114	0.95	-50.8524	-9.31255	71.2544	-36.5532	-11.8085	40.1004	-26.657	-13.5453	13.1663	-23.411	-18.6202	-6.69423	-76.0958	26.6743	1.96936	-79.2921	13.7907	-29.645	-82.166	-15.5636	-33.2323	-98.1697	11.3807	-2.55296	-98.8544	-21.4603	-15.0272	-88.0091	-40.2048	12.6996	-118.545	-2.39199	5.32145	-113.254	-28.9194	1.3655	-99.1721	-41.9464	29.5518	-130.9	-5.69998	22.9368	-121.358	-31.6626	14.3099	-107.666	-39.1462	41.4966	-110.427	18.4894	64.6505	-109.243	11.425	90.1791	-77.681	18.1837	74.0574	
